<svg width="25" height="24" viewBox="0 0 25 24" fill="none" xmlns="http://www.w3.org/2000/svg">
<g opacity="0.5">
<path d="M17.8594 10.75C17.4294 10.75 17.0893 10.4 17.0893 9.97998C17.0893 9.60998 16.7193 8.83998 16.0993 8.16998C15.4893 7.51998 14.8193 7.13998 14.2593 7.13998C13.8293 7.13998 13.4893 6.78998 13.4893 6.36998C13.4893 5.94998 13.8393 5.59998 14.2593 5.59998C15.2593 5.59998 16.3093 6.13998 17.2293 7.10998C18.0893 8.01998 18.6393 9.14998 18.6393 9.96998C18.6393 10.4 18.2894 10.75 17.8594 10.75Z" fill="#71758E"/>
<path d="M21.4694 10.75C21.0394 10.75 20.6994 10.4 20.6994 9.98C20.6994 6.43 17.8094 3.55 14.2694 3.55C13.8394 3.55 13.4994 3.2 13.4994 2.78C13.4994 2.36 13.8394 2 14.2594 2C18.6594 2 22.2394 5.58 22.2394 9.98C22.2394 10.4 21.8894 10.75 21.4694 10.75Z" fill="#71758E"/>
<path d="M11.2893 14.95L9.43935 16.8C9.04935 17.19 8.42935 17.19 8.02935 16.81C7.91935 16.7 7.80935 16.6 7.69935 16.49C6.66935 15.45 5.73935 14.36 4.90935 13.22C4.08935 12.08 3.42935 10.94 2.94935 9.81C2.47935 8.67 2.23935 7.58 2.23935 6.54C2.23935 5.86 2.35935 5.21 2.59935 4.61C2.83935 4 3.21935 3.44 3.74935 2.94C4.38935 2.31 5.08935 2 5.82935 2C6.10935 2 6.38935 2.06 6.63935 2.18C6.89935 2.3 7.12935 2.48 7.30935 2.74L9.62935 6.01C9.80935 6.26 9.93935 6.49 10.0293 6.71C10.1193 6.92 10.1693 7.13 10.1693 7.32C10.1693 7.56 10.0993 7.8 9.95935 8.03C9.82935 8.26 9.63935 8.5 9.39935 8.74L8.63935 9.53C8.52935 9.64 8.47935 9.77 8.47935 9.93C8.47935 10.01 8.48935 10.08 8.50935 10.16C8.53935 10.24 8.56935 10.3 8.58935 10.36C8.76935 10.69 9.07935 11.12 9.51935 11.64C9.96935 12.16 10.4493 12.69 10.9693 13.22C11.0693 13.32 11.1793 13.42 11.2793 13.52C11.6793 13.91 11.6893 14.55 11.2893 14.95Z" fill="#71758E"/>
<path d="M22.209 18.33C22.209 18.61 22.159 18.9 22.059 19.18C22.029 19.26 21.999 19.34 21.959 19.42C21.789 19.78 21.569 20.12 21.279 20.44C20.789 20.98 20.249 21.37 19.639 21.62C19.629 21.62 19.619 21.63 19.609 21.63C19.019 21.87 18.379 22 17.689 22C16.669 22 15.579 21.76 14.429 21.27C13.279 20.78 12.129 20.12 10.989 19.29C10.599 19 10.209 18.71 9.83896 18.4L13.109 15.13C13.389 15.34 13.639 15.5 13.849 15.61C13.899 15.63 13.959 15.66 14.029 15.69C14.109 15.72 14.189 15.73 14.279 15.73C14.449 15.73 14.579 15.67 14.689 15.56L15.449 14.81C15.699 14.56 15.939 14.37 16.169 14.25C16.399 14.11 16.629 14.04 16.879 14.04C17.069 14.04 17.269 14.08 17.489 14.17C17.709 14.26 17.939 14.39 18.189 14.56L21.499 16.91C21.759 17.09 21.939 17.3 22.049 17.55C22.149 17.8 22.209 18.05 22.209 18.33Z" fill="#71758E"/>
</g>
</svg>
