<svg width="22" height="24" viewBox="0 0 22 24" fill="none" xmlns="http://www.w3.org/2000/svg">
<g opacity="0.5">
<path d="M13.9003 6.54999H5.74068C5.49865 6.54999 5.27392 6.55999 5.06647 6.56999C3.01794 6.70999 2.47339 7.57999 2.47339 10.28V10.86C2.47339 11.41 2.86235 11.86 3.33775 11.86H16.3032C16.7786 11.86 17.1675 11.41 17.1675 10.86V10.28C17.1675 7.29999 16.5106 6.54999 13.9003 6.54999Z" fill="#71758E"/>
<path d="M3.33775 13.36C2.86235 13.36 2.47339 13.81 2.47339 14.36V17.27C2.47339 20.25 3.1303 21 5.74068 21H13.9003C16.4674 21 17.1416 20.28 17.1675 17.43V14.36C17.1675 13.81 16.7786 13.36 16.3032 13.36H3.33775ZM6.76062 18.56H5.28256C4.92818 18.56 4.63429 18.22 4.63429 17.81C4.63429 17.4 4.92818 17.06 5.28256 17.06H6.76927C7.12365 17.06 7.41754 17.4 7.41754 17.81C7.41754 18.22 7.12365 18.56 6.76062 18.56ZM11.5924 18.56H8.619C8.26461 18.56 7.97073 18.22 7.97073 17.81C7.97073 17.4 8.26461 17.06 8.619 17.06H11.5924C11.9468 17.06 12.2407 17.4 12.2407 17.81C12.2407 18.22 11.9554 18.56 11.5924 18.56Z" fill="#71758E"/>
<path d="M19.7603 13.3301V8.0901C19.7603 4.9601 18.2131 3.6001 15.8794 3.6001H8.1606C7.50369 3.6001 6.91592 3.7101 6.39731 3.9401C5.99106 4.1101 5.62802 4.3601 5.33414 4.6901C5.17856 4.8601 5.29957 5.1401 5.5243 5.1401H14.9199C16.8647 5.1401 18.4379 6.9601 18.4379 9.2101V16.3801C18.4379 16.6301 18.6712 16.7701 18.8268 16.5901C19.4232 15.8601 19.7603 14.7901 19.7603 13.3301Z" fill="#71758E"/>
</g>
</svg>
