<svg width="22" height="24" viewBox="0 0 22 24" fill="none" xmlns="http://www.w3.org/2000/svg">
<g opacity="0.5">
<path d="M11.117 2C8.85238 2 7.01129 4.13 7.01129 6.75C7.01129 9.32 8.74866 11.4 11.0133 11.49C11.0824 11.48 11.1516 11.48 11.2034 11.49C11.2207 11.49 11.2294 11.49 11.2467 11.49C11.2553 11.49 11.2553 11.49 11.264 11.49C13.4767 11.4 15.2141 9.32 15.2227 6.75C15.2227 4.13 13.3816 2 11.117 2Z" fill="#71758E"/>
<path d="M15.5088 14.1499C13.0972 12.2899 9.16436 12.2899 6.73551 14.1499C5.63777 14.9999 5.03271 16.1499 5.03271 17.3799C5.03271 18.6099 5.63777 19.7499 6.72686 20.5899C7.93697 21.5299 9.5274 21.9999 11.1178 21.9999C12.7082 21.9999 14.2987 21.5299 15.5088 20.5899C16.5979 19.7399 17.2029 18.5999 17.2029 17.3599C17.1943 16.1299 16.5979 14.9899 15.5088 14.1499Z" fill="#71758E"/>
</g>
</svg>
