<svg width="33" height="27" viewBox="0 0 33 27" fill="none" xmlns="http://www.w3.org/2000/svg">
<path fill-rule="evenodd" clip-rule="evenodd" d="M7.86831 23.619V13.8806H12.2496C14.1065 14.2129 15.9635 15.2205 17.8204 16.389H21.2231C22.7635 16.4813 23.5706 18.0429 22.0724 19.0689C20.8802 19.9447 19.3055 19.8946 17.6912 19.7495C16.5781 19.6941 16.5306 21.1897 17.6912 21.1949C18.0947 21.2266 18.5326 21.1316 18.9151 21.1316C20.9303 21.129 22.5868 20.7439 23.6023 19.1534L24.1114 17.9637L29.1732 15.4553C31.7054 14.6218 33.5043 17.27 31.6394 19.1138C27.973 21.7805 24.2142 23.9751 20.3685 25.7477C17.5751 27.4463 14.7818 27.3883 11.9911 25.7477L7.86831 23.619ZM20.0678 2.05567C21.0252 1.05598 21.6952 0.193441 23.1723 0.0246275C25.9419 -0.294536 28.49 2.54365 27.092 5.33699C26.6937 6.13358 25.8839 7.07788 24.9871 8.00636C24.0032 9.02452 22.9139 10.0242 22.1489 10.7812L20.0678 12.8466L18.348 11.1901C16.28 9.19861 12.9064 6.69014 12.7956 3.58291C12.7164 1.40679 14.4362 0.0114389 16.4092 0.0378161C18.1765 0.0589178 18.9177 0.937278 20.0678 2.05567ZM0 12.9442H6.54945V24.5976H0V12.9442Z" fill="#24874E"/>
</svg>
