<svg width="63" height="24" viewBox="0 0 63 24" fill="none" xmlns="http://www.w3.org/2000/svg">
<path d="M29.4508 11.6725V18.7485H27.1899V1.27487H33.1834C34.7024 1.27487 35.9977 1.7778 37.0574 2.78364C38.1408 3.78949 38.6824 5.01756 38.6824 6.46785C38.6824 7.95323 38.1408 9.1813 37.0574 10.1754C36.0095 11.1696 34.7142 11.6608 33.1834 11.6608H29.4508V11.6725ZM29.4508 3.42692V9.52048H33.2306C34.1255 9.52048 34.8791 9.21639 35.4678 8.61989C36.0683 8.0234 36.3745 7.29826 36.3745 6.47954C36.3745 5.67253 36.0683 4.95908 35.4678 4.36259C34.8791 3.74271 34.1372 3.43861 33.2306 3.43861H29.4508V3.42692Z" fill="white"/>
<path d="M44.5935 6.39764C46.2656 6.39764 47.5844 6.84209 48.5499 7.73098C49.5155 8.61986 49.9983 9.83624 49.9983 11.3801V18.7485H47.8434V17.0877H47.7492C46.819 18.4561 45.5708 19.1345 44.0165 19.1345C42.6859 19.1345 41.5791 18.7485 40.6842 17.9649C39.7893 17.1813 39.3418 16.2105 39.3418 15.0409C39.3418 13.8011 39.8128 12.8187 40.7548 12.0935C41.6968 11.3567 42.9567 10.9941 44.5228 10.9941C45.8652 10.9941 46.9721 11.2397 47.8316 11.731V11.2164C47.8316 10.4327 47.5255 9.77776 46.9014 9.22805C46.2773 8.67834 45.5473 8.40934 44.7112 8.40934C43.4513 8.40934 42.4504 8.93565 41.7204 9.99998L39.7304 8.76021C40.8255 7.18127 42.4504 6.39764 44.5935 6.39764ZM41.6733 15.076C41.6733 15.6608 41.9205 16.152 42.4269 16.538C42.9214 16.9239 43.5102 17.1228 44.1814 17.1228C45.1351 17.1228 45.9829 16.7719 46.7248 16.0701C47.4666 15.3684 47.8434 14.5497 47.8434 13.6023C47.1369 13.0526 46.1596 12.7719 44.8996 12.7719C43.9812 12.7719 43.2158 12.9941 42.6035 13.4269C41.9794 13.883 41.6733 14.4327 41.6733 15.076Z" fill="white"/>
<path d="M62.2914 6.78365L54.7554 24H52.4239L55.2264 17.9766L50.2573 6.78365H52.7183L56.2979 15.3684H56.345L59.8305 6.78365H62.2914Z" fill="white"/>
<path d="M20.4584 10.2456C20.4584 9.51343 20.3925 8.81284 20.27 8.13916H10.7935V11.9988L16.2512 12C16.0298 13.2842 15.3174 14.3789 14.2259 15.1087V17.6128H17.4746C19.3716 15.869 20.4584 13.2912 20.4584 10.2456Z" fill="#4285F4"/>
<path d="M14.227 15.1088C13.3227 15.7146 12.1581 16.069 10.7958 16.069C8.16403 16.069 5.93147 14.3076 5.13195 11.9333H1.78076V14.5158C3.44105 17.7883 6.85346 20.0339 10.7958 20.0339C13.5205 20.0339 15.8096 19.1439 17.4758 17.6117L14.227 15.1088Z" fill="#34A853"/>
<path d="M4.81633 10.0176C4.81633 9.35092 4.92819 8.70648 5.1319 8.10063V5.51817H1.78072C1.09423 6.87139 0.708008 8.39887 0.708008 10.0176C0.708008 11.6363 1.09541 13.1638 1.78072 14.517L5.1319 11.9345C4.92819 11.3287 4.81633 10.6842 4.81633 10.0176Z" fill="#FABB05"/>
<path d="M10.7958 3.96495C12.2829 3.96495 13.6147 4.47373 14.6662 5.46788L17.5452 2.61057C15.7966 0.993028 13.517 4.57764e-05 10.7958 4.57764e-05C6.85464 4.57764e-05 3.44105 2.24566 1.78076 5.51817L5.13195 8.10062C5.93147 5.72636 8.16403 3.96495 10.7958 3.96495Z" fill="#E94235"/>
</svg>
