<svg width="29" height="29" viewBox="0 0 29 29" fill="none" xmlns="http://www.w3.org/2000/svg">
<rect width="29" height="29" rx="14.5" fill="black"/>
<path d="M14.5023 7.3682C16.827 7.3682 17.0999 7.37856 18.0187 7.42001C18.8684 7.45801 19.3278 7.59963 19.6353 7.72053C20.0429 7.87942 20.333 8.06595 20.637 8.36992C20.941 8.67389 21.1309 8.96404 21.2864 9.37164C21.4038 9.67906 21.5489 10.1385 21.5869 10.9882C21.6283 11.907 21.6387 12.1799 21.6387 14.5046C21.6387 16.8293 21.6283 17.1022 21.5869 18.021C21.5489 18.8707 21.4073 19.3301 21.2864 19.6375C21.1275 20.0451 20.941 20.3353 20.637 20.6393C20.333 20.9432 20.0429 21.1332 19.6353 21.2887C19.3278 21.4061 18.8684 21.5512 18.0187 21.5892C17.0999 21.6306 16.827 21.641 14.5023 21.641C12.1776 21.641 11.9047 21.6306 10.9859 21.5892C10.1362 21.5512 9.67678 21.4096 9.36935 21.2887C8.96176 21.1298 8.6716 20.9432 8.36763 20.6393C8.06366 20.3353 7.87368 20.0451 7.71824 19.6375C7.6008 19.3301 7.45572 18.8707 7.41773 18.021C7.37628 17.1022 7.36591 16.8293 7.36591 14.5046C7.36591 12.1799 7.37628 11.907 7.41773 10.9882C7.45572 10.1385 7.59734 9.67906 7.71824 9.37164C7.87714 8.96404 8.06366 8.67389 8.36763 8.36992C8.6716 8.06595 8.96176 7.87597 9.36935 7.72053C9.67678 7.60308 10.1362 7.45801 10.9859 7.42001C11.9047 7.37511 12.1811 7.3682 14.5023 7.3682ZM14.5023 5.79999C12.1396 5.79999 11.8426 5.81035 10.9134 5.8518C9.98766 5.89325 9.35554 6.04178 8.80286 6.25594C8.22947 6.47701 7.74588 6.77753 7.26229 7.26112C6.7787 7.74471 6.48163 8.23175 6.25711 8.80169C6.04295 9.35437 5.89442 9.98649 5.85297 10.9157C5.81152 11.8414 5.80116 12.1385 5.80116 14.5011C5.80116 16.8638 5.81152 17.1609 5.85297 18.0901C5.89442 19.0158 6.04295 19.6479 6.25711 20.204C6.47818 20.7774 6.7787 21.261 7.26229 21.7446C7.74588 22.2282 8.23292 22.5253 8.80286 22.7498C9.35554 22.9639 9.98766 23.1125 10.9168 23.1539C11.846 23.1954 12.1396 23.2057 14.5058 23.2057C16.8719 23.2057 17.1655 23.1954 18.0947 23.1539C19.0204 23.1125 19.6525 22.9639 20.2087 22.7498C20.7821 22.5287 21.2657 22.2282 21.7492 21.7446C22.2328 21.261 22.5299 20.774 22.7544 20.204C22.9686 19.6514 23.1171 19.0192 23.1586 18.0901C23.2 17.1609 23.2104 16.8673 23.2104 14.5011C23.2104 12.135 23.2 11.8414 23.1586 10.9122C23.1171 9.98649 22.9686 9.35437 22.7544 8.79824C22.5333 8.22484 22.2328 7.74125 21.7492 7.25766C21.2657 6.77407 20.7786 6.47701 20.2087 6.25249C19.656 6.03833 19.0239 5.8898 18.0947 5.84835C17.1621 5.81035 16.865 5.79999 14.5023 5.79999Z" fill="white"/>
<path d="M14.5023 10.0349C12.036 10.0349 10.0326 12.0348 10.0326 14.5046C10.0326 16.9744 12.0325 18.9743 14.5023 18.9743C16.9721 18.9743 18.972 16.9744 18.972 14.5046C18.972 12.0348 16.9721 10.0349 14.5023 10.0349ZM14.5023 17.4027C12.8995 17.4027 11.6008 16.1039 11.6008 14.5011C11.6008 12.8984 12.8995 11.5996 14.5023 11.5996C16.1051 11.5996 17.4038 12.8984 17.4038 14.5011C17.4038 16.1039 16.1051 17.4027 14.5023 17.4027Z" fill="white"/>
<path d="M19.1482 10.8984C19.7243 10.8984 20.1914 10.4314 20.1914 9.85524C20.1914 9.27912 19.7243 8.81207 19.1482 8.81207C18.5721 8.81207 18.105 9.27912 18.105 9.85524C18.105 10.4314 18.5721 10.8984 19.1482 10.8984Z" fill="white"/>
</svg>
