<svg width="22" height="24" viewBox="0 0 22 24" fill="none" xmlns="http://www.w3.org/2000/svg">
<g opacity="0.5">
<path d="M17.7232 4.21982C15.1647 1.26982 11.0158 1.26982 8.47457 4.21982C6.68534 6.26982 6.14944 9.21982 6.84093 11.8198L2.77843 16.5198C2.49319 16.8598 2.29438 17.5298 2.35489 18.0098L2.6142 20.1898C2.70928 20.9098 3.2884 21.5898 3.91074 21.6898L5.79505 21.9898C6.20994 22.0598 6.78906 21.8398 7.08295 21.4898L7.79172 20.6698C7.9646 20.4798 7.9646 20.1598 7.79172 19.9598L6.11486 18.0198C5.8642 17.7298 5.8642 17.2498 6.11486 16.9598C6.36553 16.6698 6.78042 16.6698 7.03109 16.9598L8.71659 18.9098C8.88082 19.0998 9.15742 19.0998 9.32164 18.9098L11.1541 16.7998C13.3928 17.6098 15.9427 16.9798 17.7232 14.9298C20.2731 11.9798 20.2731 7.16982 17.7232 4.21982ZM13.1508 11.9998C11.9579 11.9998 10.9899 10.8798 10.9899 9.49982C10.9899 8.11982 11.9579 6.99982 13.1508 6.99982C14.3436 6.99982 15.3117 8.11982 15.3117 9.49982C15.3117 10.8798 14.3436 11.9998 13.1508 11.9998Z" fill="#71758E"/>
</g>
</svg>
