<svg width="25" height="24" viewBox="0 0 25 24" fill="none" xmlns="http://www.w3.org/2000/svg">
<g opacity="0.5">
<path d="M9.38974 7.49023C8.82974 7.49023 8.38974 7.94023 8.38974 8.49023C8.38974 9.04023 8.83974 9.49023 9.38974 9.49023C9.93974 9.49023 10.3897 9.04023 10.3897 8.49023C10.3897 7.94023 9.93974 7.49023 9.38974 7.49023Z" fill="#71758E"/>
<path d="M21.6993 5.04C20.8593 3.09 19.0093 2 16.4293 2H8.04935C4.83935 2 2.23935 4.6 2.23935 7.81V16.19C2.23935 18.77 3.32935 20.62 5.27935 21.46C5.46935 21.54 5.68935 21.49 5.82935 21.35L21.5893 5.59C21.7393 5.44 21.7893 5.22 21.6993 5.04ZM10.7693 12.24C10.3793 12.62 9.86935 12.8 9.35935 12.8C8.84935 12.8 8.33935 12.61 7.94935 12.24C6.92935 11.28 5.80935 9.75 6.23935 7.93C6.61935 6.28 8.07935 5.54 9.35935 5.54C10.6393 5.54 12.0993 6.28 12.4793 7.94C12.8993 9.75 11.7793 11.28 10.7693 12.24Z" fill="#71758E"/>
<path d="M19.7102 20.53C19.9302 20.75 19.9002 21.11 19.6302 21.26C18.7502 21.75 17.6802 22 16.4302 22H8.05022C7.76022 22 7.64022 21.66 7.84022 21.46L13.8802 15.42C14.0802 15.22 14.3902 15.22 14.5902 15.42L19.7102 20.53Z" fill="#71758E"/>
<path d="M22.2394 7.81002V16.19C22.2394 17.44 21.9894 18.52 21.4994 19.39C21.3494 19.66 20.9894 19.68 20.7694 19.47L15.6494 14.35C15.4494 14.15 15.4494 13.84 15.6494 13.64L21.6894 7.60002C21.8994 7.40002 22.2394 7.52002 22.2394 7.81002Z" fill="#71758E"/>
</g>
</svg>
