<svg width="32" height="27" viewBox="0 0 32 27" fill="none" xmlns="http://www.w3.org/2000/svg">
<path fill-rule="evenodd" clip-rule="evenodd" d="M7.12237 17.0896H10.3984C8.00779 13.1063 13.2317 12.3012 15.3307 9.95486V9.4589C15.1406 9.42998 14.9505 9.37216 14.7682 9.28097C14.362 9.08081 14.1015 8.78723 13.9817 8.4047C13.862 8.02216 13.9219 7.65519 14.1588 7.30601C14.3333 7.05025 14.5963 6.84786 14.9531 6.70774C14.5208 7.12586 14.2291 7.4061 14.4219 8.02661C14.526 8.35799 14.7526 8.61376 15.1041 8.78278C15.4505 8.95404 15.8203 8.99629 16.2083 8.90733C16.9427 8.74498 17.0729 8.3869 17.2812 7.85313C17.2916 8.00881 17.2916 8.10667 17.289 8.15338C17.2682 8.36689 17.1927 8.56483 17.0677 8.75165C16.8359 9.09638 16.4922 9.321 16.0442 9.42109C16.013 9.42998 15.9844 9.43443 15.9531 9.43888V9.95931C18.1172 12.4725 23.0989 13.1664 20.8828 17.0852H24.1901V14.0427L23.4453 11.6696H24.3047V9.28987L26.1979 4.42142V3.02026C26.1979 2.84234 26.3646 2.7 26.5729 2.7C26.7812 2.7 26.9479 2.84234 26.9479 3.02026V4.20791L28.9583 9.28987V11.6696H29.914L28.987 14.0427V18.2839C30.0443 17.0585 30.9557 15.5973 32 13.9448C31.7969 15.406 31.6302 16.3468 31.5052 16.7627C30.9062 18.7199 29.8385 20.488 28.3125 22.0582C25.4844 24.9672 21.8724 26.5886 17.4791 26.9333C13.0859 27.2802 9.19269 26.2483 5.78904 23.8307C2.36196 21.4021 0.455705 18.3128 0.0676845 14.5586C-0.317732 10.8044 0.919247 7.45502 3.78383 4.50815C5.8906 2.34415 8.74477 0.840692 12.3411 0C7.513 3.32273 4.25779 5.56458 4.90623 11.6185C5.12758 13.6735 5.86716 15.4972 7.12237 17.0896ZM15.6354 7.67298L15.8802 7.31046L15.5547 6.99909L16.0312 7.08583L16.276 6.72331L16.3281 7.13921L16.8073 7.22817L16.3594 7.3972L16.4114 7.8131L16.0807 7.50173L15.6354 7.67298ZM25.8203 9.95264H27.5547V11.1203H25.8203V9.95264Z" fill="#24874E"/>
</svg>
