<svg width="25" height="24" viewBox="0 0 25 24" fill="none" xmlns="http://www.w3.org/2000/svg">
<g opacity="0.5">
<path d="M18.2393 4H15.9893V2.75C15.9893 2.34 15.6493 2 15.2393 2C14.8293 2 14.4893 2.34 14.4893 2.75V21.25C14.4893 21.66 14.8293 22 15.2393 22C15.6493 22 15.9893 21.66 15.9893 21.25V20H18.2393C20.4493 20 22.2393 18.21 22.2393 16V8C22.2393 5.79 20.4493 4 18.2393 4Z" fill="#71758E"/>
<path d="M6.73935 4C4.52935 4 2.73935 5.79 2.73935 8V16C2.73935 18.21 4.52935 20 6.73935 20H11.7393C12.2893 20 12.7393 19.55 12.7393 19V5C12.7393 4.45 12.2893 4 11.7393 4H6.73935ZM6.90935 12.38C6.85935 12.5 6.78935 12.61 6.69935 12.71C6.59935 12.8 6.48935 12.87 6.36935 12.92C6.24935 12.97 6.11935 13 5.98935 13C5.85935 13 5.72935 12.97 5.60935 12.92C5.48935 12.87 5.37935 12.8 5.27935 12.71C5.18935 12.61 5.11935 12.5 5.05935 12.38C5.00935 12.26 4.98935 12.13 4.98935 12C4.98935 11.74 5.09935 11.48 5.27935 11.29C5.32935 11.25 5.37935 11.21 5.42935 11.17C5.48935 11.13 5.54935 11.1 5.60935 11.08C5.66935 11.05 5.72935 11.03 5.78935 11.02C6.12935 10.95 6.46935 11.06 6.69935 11.29C6.87935 11.48 6.98935 11.74 6.98935 12C6.98935 12.13 6.95935 12.26 6.90935 12.38ZM10.4093 12.38C10.3593 12.5 10.2893 12.61 10.1993 12.71C10.0993 12.8 9.98935 12.87 9.86935 12.92C9.74935 12.97 9.61935 13 9.48935 13C9.35935 13 9.22935 12.97 9.10935 12.92C8.98935 12.87 8.87935 12.8 8.77935 12.71C8.58935 12.52 8.48935 12.27 8.48935 12C8.48935 11.87 8.51935 11.74 8.56935 11.62C8.61935 11.49 8.68935 11.39 8.77935 11.29C9.14935 10.92 9.81935 10.92 10.1993 11.29C10.3793 11.48 10.4893 11.74 10.4893 12C10.4893 12.13 10.4593 12.26 10.4093 12.38Z" fill="#71758E"/>
</g>
</svg>
