<svg width="32" height="27" viewBox="0 0 32 27" fill="none" xmlns="http://www.w3.org/2000/svg">
<g clip-path="url(#clip0_602_110)">
<path d="M25.871 24.2732C24.4136 25.0642 23.4525 25.5498 22.9929 25.73C20.8291 26.5759 18.5367 27 16.126 27C11.6619 27 7.86214 25.6794 4.71623 23.0471C1.57033 20.4148 0 17.2354 0 13.5C0 9.74048 1.5782 6.55444 4.73724 3.93311C7.8989 1.31396 11.7381 0 16.26 0C19.5844 0 22.7907 0.903076 25.871 2.70703C19.742 1.67212 15.6087 0.973389 10.5249 5.21631C7.79386 7.50146 6.42573 10.2634 6.42573 13.5C6.42573 16.7124 7.78598 19.4678 10.5091 21.7661C15.6087 26.0771 19.7079 25.3081 25.871 24.2732ZM19.7184 11.9509H24.4057L25.871 8.22217L27.3074 11.9509H32L28.2055 14.2471L29.6419 17.9934L25.871 15.6907L22.0686 17.9934L23.5129 14.2471L19.7184 11.9509Z" fill="#24874E"/>
</g>
<defs>
<clipPath id="clip0_602_110">
<rect width="32" height="27" fill="white"/>
</clipPath>
</defs>
</svg>
