<svg width="21" height="24" viewBox="0 0 21 24" fill="none" xmlns="http://www.w3.org/2000/svg">
<g opacity="0.5">
<path d="M7.16475 6.29C6.80172 6.29 6.51648 5.95 6.51648 5.54V2.75C6.51648 2.34 6.80172 2 7.16475 2C7.52778 2 7.81302 2.34 7.81302 2.75V5.53C7.81302 5.95 7.52778 6.29 7.16475 6.29Z" fill="#71758E"/>
<path d="M13.5799 6.29C13.2169 6.29 12.9317 5.95 12.9317 5.54V2.75C12.9317 2.33 13.2256 2 13.5799 2C13.943 2 14.2282 2.34 14.2282 2.75V5.53C14.2282 5.95 13.943 6.29 13.5799 6.29Z" fill="#71758E"/>
<path d="M18.5833 15.8202C18.5833 15.9702 18.5401 16.1202 18.4277 16.2502C17.1744 17.7102 14.9443 20.3102 13.6651 21.8002C13.5527 21.9402 13.4058 22.0002 13.2588 22.0002C12.9736 22.0002 12.697 21.7402 12.697 21.3602V17.8602C12.697 16.4002 13.7688 15.1902 15.0826 15.1902C15.9038 15.1802 17.0447 15.1802 18.0215 15.1802C18.3586 15.1802 18.5833 15.4902 18.5833 15.8202Z" fill="#71758E"/>
<path d="M18.5833 15.8202C18.5833 15.9702 18.5401 16.1202 18.4277 16.2502C17.1744 17.7102 14.9443 20.3102 13.6651 21.8002C13.5527 21.9402 13.4058 22.0002 13.2588 22.0002C12.9736 22.0002 12.697 21.7402 12.697 21.3602V17.8602C12.697 16.4002 13.7688 15.1902 15.0826 15.1902C15.9038 15.1802 17.0447 15.1802 18.0215 15.1802C18.3586 15.1802 18.5833 15.4902 18.5833 15.8202Z" fill="#71758E"/>
<path d="M16.9156 4.5C16.3451 4.01 15.524 4.48 15.524 5.31V5.41C15.524 6.58 14.7979 7.66 13.7866 7.78C12.6197 7.92 11.6343 6.86 11.6343 5.54V4.5C11.6343 3.95 11.2454 3.5 10.77 3.5H9.97475C9.49935 3.5 9.11039 3.95 9.11039 4.5V5.41C9.11039 6.29 8.70414 7.11 8.07315 7.51C8.03858 7.54 8.004 7.56 7.96943 7.58C7.96079 7.58 7.96079 7.59 7.95214 7.59C7.89164 7.62 7.83113 7.65 7.76198 7.68C7.7447 7.69 7.72741 7.69 7.71012 7.7C7.6064 7.74 7.49403 7.77 7.37302 7.78H7.36438C7.23472 7.8 7.09643 7.8 6.96677 7.78H6.95813C6.83712 7.77 6.72475 7.74 6.62103 7.7C6.53459 7.67 6.44815 7.63 6.36172 7.58C5.68752 7.23 5.22076 6.45 5.22076 5.54V5.31C5.22076 4.54 4.51198 4.08 3.95015 4.41C3.9415 4.42 3.93286 4.42 3.92422 4.43H3.91557C3.85507 4.48 3.80321 4.53 3.7427 4.58C3.64762 4.67 3.55254 4.76 3.46611 4.86C3.4056 4.93 3.34509 5 3.29323 5.07C3.22408 5.15 3.16358 5.23 3.10307 5.32C3.05986 5.38 3.00799 5.44 2.97342 5.51C2.9302 5.57 2.89563 5.64 2.86105 5.7C2.85241 5.71 2.84376 5.72 2.83512 5.74C2.75733 5.87 2.68818 6.02 2.62767 6.16C2.61039 6.18 2.60174 6.19 2.60174 6.21C2.54988 6.33 2.49802 6.45 2.46345 6.58C2.43751 6.63 2.42887 6.67 2.41158 6.72C2.3943 6.76 2.38565 6.81 2.36837 6.85C2.34244 6.95 2.3165 7.06 2.29057 7.17C2.256 7.31 2.23007 7.46 2.21278 7.61C2.19549 7.72 2.18685 7.83 2.17821 7.95C2.16956 8.09 2.16092 8.23 2.16092 8.37V17.13C2.16092 19.82 4.04523 22 6.37036 22H10.5366C11.012 22 11.4009 21.55 11.4009 21V17.86C11.4009 15.56 13.0519 13.69 15.0831 13.69C15.5412 13.68 16.6563 13.68 17.7194 13.68C18.1948 13.68 18.5838 13.23 18.5838 12.68V8.37C18.5838 6.78 17.9269 5.39 16.9156 4.5ZM9.62036 15.91C9.54257 16.21 9.30055 16.42 9.01531 16.42H5.86903C5.82581 16.42 5.79124 16.42 5.75666 16.4C5.44549 16.35 5.22076 16.04 5.22076 15.67C5.22076 15.25 5.506 14.91 5.86903 14.91H9.01531C9.3697 14.91 9.66358 15.25 9.66358 15.67C9.66358 15.75 9.65494 15.84 9.62036 15.91ZM12.0233 12.2C11.9455 12.5 11.7035 12.71 11.4182 12.71H5.86903C5.82581 12.71 5.79124 12.71 5.75666 12.69C5.44549 12.64 5.22076 12.33 5.22076 11.96C5.22076 11.54 5.506 11.2 5.86903 11.2H11.4182C11.7813 11.2 12.0665 11.54 12.0665 11.96C12.0665 12.04 12.0579 12.13 12.0233 12.2Z" fill="#71758E"/>
</g>
</svg>
