<svg width="29" height="29" viewBox="0 0 29 29" fill="none" xmlns="http://www.w3.org/2000/svg">
<rect width="29" height="29" rx="14.5" fill="#1D9BF0"/>
<path d="M11.8465 22.1488C18.2772 22.1488 21.7935 16.82 21.7935 12.2018C21.7935 12.0495 21.7935 11.8973 21.7863 11.7523C22.4677 11.2593 23.0623 10.643 23.5335 9.93977C22.91 10.2153 22.2357 10.4038 21.5252 10.4908C22.2502 10.0558 22.8013 9.37427 23.0623 8.55502C22.388 8.95377 21.6412 9.24377 20.8438 9.40327C20.2057 8.72177 19.2995 8.30127 18.2917 8.30127C16.3632 8.30127 14.7973 9.86727 14.7973 11.7958C14.7973 12.0713 14.8263 12.3395 14.8915 12.5933C11.9843 12.4483 9.4105 11.0563 7.685 8.93927C7.38775 9.45402 7.21375 10.0558 7.21375 10.6938C7.21375 11.9045 7.83 12.9775 8.7725 13.601C8.19975 13.5865 7.66325 13.427 7.192 13.166C7.192 13.1805 7.192 13.195 7.192 13.2095C7.192 14.906 8.3955 16.3125 9.99775 16.6388C9.70775 16.7185 9.396 16.762 9.077 16.762C8.85225 16.762 8.63475 16.7403 8.41725 16.6968C8.8595 18.0888 10.15 19.0965 11.6798 19.1255C10.4835 20.0608 8.9755 20.619 7.337 20.619C7.05425 20.619 6.77875 20.6045 6.50325 20.5683C8.033 21.5688 9.8745 22.1488 11.8465 22.1488Z" fill="white"/>
</svg>
