<svg width="29" height="29" viewBox="0 0 29 29" fill="none" xmlns="http://www.w3.org/2000/svg">
<rect width="29" height="29" rx="14.5" fill="#FF0000"/>
<path d="M24.4314 9.51956C24.1925 8.63221 23.4929 7.93257 22.6055 7.69367C20.9844 7.25 14.5 7.25 14.5 7.25C14.5 7.25 8.0155 7.25 6.39439 7.67661C5.52411 7.91551 4.80741 8.63221 4.56851 9.51956C4.1419 11.1407 4.1419 14.5023 4.1419 14.5023C4.1419 14.5023 4.1419 17.8811 4.56851 19.4851C4.80741 20.3725 5.50705 21.0721 6.39439 21.311C8.03257 21.7547 14.5 21.7547 14.5 21.7547C14.5 21.7547 20.9844 21.7547 22.6055 21.3281C23.4929 21.0892 24.1925 20.3895 24.4314 19.5022C24.858 17.8811 24.858 14.5194 24.858 14.5194C24.858 14.5194 24.8751 11.1407 24.4314 9.51956Z" fill="white"/>
<path d="M12.4352 17.608L17.8275 14.5023L12.4352 11.3966V17.608Z" fill="#FF0000"/>
</svg>
