<svg width="32" height="27" viewBox="0 0 32 27" fill="none" xmlns="http://www.w3.org/2000/svg">
<path fill-rule="evenodd" clip-rule="evenodd" d="M15.8411 4.27737C17.9244 2.20083 19.388 0.400662 22.6119 0.0446127C28.6458 -0.612709 34.1822 5.29323 31.138 11.107C30.2708 12.7628 28.5052 14.7323 26.552 16.6644C24.9739 18.2255 23.2734 19.7643 21.8229 21.0963V22.1595C21.8248 23.4169 21.3072 24.6241 20.3828 25.5183C18.7682 27.082 14.4479 27.3907 12.3098 26.574C10.8098 25.9939 8.42704 23.4891 7.10933 22.1396C6.69502 21.7548 6.30625 21.3457 5.94527 20.9146C5.76277 20.6715 5.63519 20.3948 5.57063 20.102C5.50607 19.8092 5.50594 19.5068 5.57027 19.214C5.64119 18.9305 5.78534 18.6686 5.98954 18.4521C6.09693 18.3399 6.21955 18.2419 6.35412 18.1608C3.08329 15.051 0.156204 11.498 -4.61768e-05 7.45442C-0.164109 2.92289 3.57547 0.022204 7.87756 0.074491C11.7213 0.124288 13.3463 1.94935 15.8411 4.27737ZM21.0026 18.838V22.1595C21.0007 23.2093 20.5655 24.2159 19.7916 24.9606C18.4166 26.2902 14.414 26.5292 12.5911 25.837C11.3593 25.3689 9.12235 23.0833 7.86193 21.7885C7.62756 21.5395 6.74735 20.7104 6.55985 20.4067C6.35895 20.1127 6.28606 19.7553 6.35672 19.4107C6.39308 19.2541 6.47113 19.1092 6.58329 18.9899C6.69045 18.8756 6.82685 18.7898 6.97912 18.7409C7.36714 18.6239 7.88537 18.7409 8.4062 19.2389C8.52599 19.3534 8.8411 19.6572 9.15099 19.9361C9.39051 20.1649 9.65208 20.3717 9.93224 20.5536C9.99951 20.5959 10.0783 20.6184 10.1588 20.6183L10.4817 20.4664L10.5963 18.9227C10.5963 16.0394 10.6171 13.7363 10.6171 10.8456C10.6171 9.60068 12.5807 9.60068 12.5807 10.8456V15.9249H13.427V9.3019C13.427 8.05697 15.3906 8.05697 15.3906 9.3019V15.9199H16.2552V11.3535C16.2552 10.1086 18.2187 10.1086 18.2187 11.3535V15.9199H19.039V13.0342C19.039 11.7893 21.0026 11.7893 21.0026 13.0342V18.838Z" fill="#24874E"/>
</svg>
